<mxfile host="app.diagrams.net" agent="Mozilla/5.0 (Windows NT 10.0; Win64; x64) AppleWebKit/537.36 (KHTML, like Gecko) Chrome/129.0.0.0 Safari/537.36" version="24.7.17">
  <diagram name="Страница — 1" id="flQP20-5zX7BcdRE8flK">
    <mxGraphModel dx="1000" dy="627" grid="1" gridSize="10" guides="1" tooltips="1" connect="1" arrows="1" fold="1" page="1" pageScale="1" pageWidth="827" pageHeight="1169" math="0" shadow="0">
      <root>
        <mxCell id="0" />
        <mxCell id="1" parent="0" />
        <mxCell id="t8qjZ4TBIEZS-IhVKaN8-68" value="" style="group" parent="1" vertex="1" connectable="0">
          <mxGeometry x="10" y="35" width="750" height="570" as="geometry" />
        </mxCell>
        <mxCell id="t8qjZ4TBIEZS-IhVKaN8-1" value="" style="rounded=1;whiteSpace=wrap;html=1;fillColor=#dae8fc;strokeColor=#6c8ebf;" parent="t8qjZ4TBIEZS-IhVKaN8-68" vertex="1">
          <mxGeometry width="170" height="300" as="geometry" />
        </mxCell>
        <mxCell id="qztZ1_po2IppHf0p68Rq-8" value="" style="rounded=1;whiteSpace=wrap;html=1;" vertex="1" parent="t8qjZ4TBIEZS-IhVKaN8-68">
          <mxGeometry y="188.54999999999998" width="170" height="41.45" as="geometry" />
        </mxCell>
        <mxCell id="t8qjZ4TBIEZS-IhVKaN8-37" value="" style="rounded=1;whiteSpace=wrap;html=1;" parent="t8qjZ4TBIEZS-IhVKaN8-68" vertex="1">
          <mxGeometry y="230" width="170" height="41.45" as="geometry" />
        </mxCell>
        <mxCell id="t8qjZ4TBIEZS-IhVKaN8-33" value="" style="rounded=1;whiteSpace=wrap;html=1;strokeColor=#FF0000;" parent="t8qjZ4TBIEZS-IhVKaN8-68" vertex="1">
          <mxGeometry y="145.09" width="170" height="41.45" as="geometry" />
        </mxCell>
        <mxCell id="t8qjZ4TBIEZS-IhVKaN8-8" value="&lt;div style=&quot;font-size: 11px;&quot;&gt;&lt;font style=&quot;font-size: 11px;&quot;&gt;&lt;br&gt;&lt;/font&gt;&lt;/div&gt;&lt;font style=&quot;font-size: 11px;&quot;&gt;Пауэрбанки по адресу ул. Дмитровское шоссе 5&lt;/font&gt;&lt;div style=&quot;font-size: 11px;&quot;&gt;&lt;font style=&quot;font-size: 11px;&quot;&gt;&lt;span style=&quot;background-color: initial;&quot;&gt;&lt;br&gt;&lt;/span&gt;&lt;/font&gt;&lt;/div&gt;&lt;div style=&quot;font-size: 11px;&quot;&gt;&lt;font style=&quot;font-size: 11px;&quot;&gt;&lt;span style=&quot;background-color: initial;&quot;&gt;Осталось - 5&lt;/span&gt;&lt;br&gt;&lt;/font&gt;&lt;/div&gt;&lt;div style=&quot;font-size: 11px;&quot;&gt;&lt;font style=&quot;font-size: 11px;&quot;&gt;&lt;br&gt;&lt;/font&gt;&lt;/div&gt;&lt;div style=&quot;font-size: 11px;&quot;&gt;&lt;font style=&quot;font-size: 11px;&quot;&gt;&lt;br&gt;&lt;/font&gt;&lt;/div&gt;&lt;div style=&quot;font-size: 11px;&quot;&gt;&lt;font style=&quot;font-size: 11px;&quot;&gt;&lt;br&gt;&lt;/font&gt;&lt;/div&gt;" style="rounded=1;whiteSpace=wrap;html=1;fillColor=#dae8fc;strokeColor=#6c8ebf;" parent="t8qjZ4TBIEZS-IhVKaN8-68" vertex="1">
          <mxGeometry x="313.95" width="186.05" height="300" as="geometry" />
        </mxCell>
        <mxCell id="t8qjZ4TBIEZS-IhVKaN8-26" value="&lt;font style=&quot;font-size: 14px;&quot;&gt;Список постаматов&lt;/font&gt;" style="text;html=1;align=center;verticalAlign=middle;whiteSpace=wrap;rounded=0;" parent="t8qjZ4TBIEZS-IhVKaN8-68" vertex="1">
          <mxGeometry x="15.23" y="-0.0009090909090900823" width="139.53488372093022" height="62.181818181818194" as="geometry" />
        </mxCell>
        <mxCell id="t8qjZ4TBIEZS-IhVKaN8-27" value="&lt;div style=&quot;font-size: 13px;&quot;&gt;&lt;font style=&quot;font-size: 13px;&quot;&gt;&lt;br&gt;&lt;/font&gt;&lt;/div&gt;&lt;div style=&quot;font-size: 13px;&quot;&gt;&lt;font style=&quot;font-size: 13px;&quot;&gt;&lt;br&gt;&lt;/font&gt;&lt;/div&gt;&lt;font style=&quot;font-size: 13px;&quot;&gt;&lt;div&gt;&lt;font style=&quot;font-size: 13px;&quot;&gt;&lt;br&gt;&lt;/font&gt;&lt;/div&gt;&lt;div&gt;&lt;font style=&quot;font-size: 13px;&quot;&gt;&lt;br&gt;&lt;/font&gt;&lt;/div&gt;1. ул. Дмитровское шоссе 5&lt;/font&gt;&lt;div&gt;&lt;span style=&quot;font-size: 13px;&quot;&gt;&lt;br&gt;&lt;/span&gt;&lt;div&gt;&lt;div style=&quot;font-size: 13px;&quot;&gt;&lt;div style=&quot;&quot;&gt;&lt;font style=&quot;font-size: 13px;&quot;&gt;2. ул. Дмитровское шоссе 20&amp;nbsp;&lt;/font&gt;&lt;/div&gt;&lt;div style=&quot;&quot;&gt;&lt;font style=&quot;font-size: 13px;&quot;&gt;3. ул. Дмитровское шоссе 25&lt;/font&gt;&lt;/div&gt;&lt;/div&gt;&lt;/div&gt;&lt;/div&gt;" style="text;html=1;align=left;verticalAlign=middle;whiteSpace=wrap;rounded=0;" parent="t8qjZ4TBIEZS-IhVKaN8-68" vertex="1">
          <mxGeometry x="0.00046511627905942987" y="154.99818181818182" width="139.53488372093022" height="41.45454545454545" as="geometry" />
        </mxCell>
        <mxCell id="t8qjZ4TBIEZS-IhVKaN8-44" value="" style="rounded=1;whiteSpace=wrap;html=1;" parent="t8qjZ4TBIEZS-IhVKaN8-68" vertex="1">
          <mxGeometry x="420" width="60" height="20.73" as="geometry" />
        </mxCell>
        <mxCell id="t8qjZ4TBIEZS-IhVKaN8-56" style="edgeStyle=orthogonalEdgeStyle;rounded=0;orthogonalLoop=1;jettySize=auto;html=1;exitX=0.5;exitY=0;exitDx=0;exitDy=0;entryX=0.5;entryY=0;entryDx=0;entryDy=0;" parent="t8qjZ4TBIEZS-IhVKaN8-68" source="t8qjZ4TBIEZS-IhVKaN8-42" target="t8qjZ4TBIEZS-IhVKaN8-1" edge="1">
          <mxGeometry relative="1" as="geometry" />
        </mxCell>
        <mxCell id="t8qjZ4TBIEZS-IhVKaN8-42" value="&lt;font style=&quot;font-size: 13px;&quot;&gt;назад&lt;/font&gt;" style="text;html=1;align=center;verticalAlign=middle;whiteSpace=wrap;rounded=0;strokeWidth=2;" parent="t8qjZ4TBIEZS-IhVKaN8-68" vertex="1">
          <mxGeometry x="427.67279069767443" width="52.325581395348834" height="20.727272727272727" as="geometry" />
        </mxCell>
        <mxCell id="t8qjZ4TBIEZS-IhVKaN8-66" style="edgeStyle=orthogonalEdgeStyle;rounded=0;orthogonalLoop=1;jettySize=auto;html=1;entryX=0.402;entryY=0.1;entryDx=0;entryDy=0;entryPerimeter=0;" parent="t8qjZ4TBIEZS-IhVKaN8-68" edge="1">
          <mxGeometry relative="1" as="geometry">
            <mxPoint x="39.25" y="435.27272727272725" as="sourcePoint" />
            <Array as="points">
              <mxPoint x="38.372093023255815" y="476.72727272727275" />
              <mxPoint x="40.116279069767444" y="476.72727272727275" />
            </Array>
          </mxGeometry>
        </mxCell>
        <mxCell id="t8qjZ4TBIEZS-IhVKaN8-73" value="User story -&amp;nbsp;Я, как пользователь приложения БериЗаряд, хочу иметь возможность&amp;nbsp;&lt;div&gt;знать количество доступных пауэрбанков в постамате, для того чтобы не приходить к постамату если он пустой&lt;/div&gt;" style="text;html=1;align=center;verticalAlign=middle;resizable=0;points=[];autosize=1;strokeColor=none;fillColor=none;" parent="t8qjZ4TBIEZS-IhVKaN8-68" vertex="1">
          <mxGeometry y="310" width="650" height="40" as="geometry" />
        </mxCell>
        <mxCell id="qztZ1_po2IppHf0p68Rq-6" style="edgeStyle=orthogonalEdgeStyle;rounded=0;orthogonalLoop=1;jettySize=auto;html=1;exitX=1;exitY=0.75;exitDx=0;exitDy=0;entryX=0.033;entryY=0.587;entryDx=0;entryDy=0;entryPerimeter=0;" edge="1" parent="t8qjZ4TBIEZS-IhVKaN8-68" source="t8qjZ4TBIEZS-IhVKaN8-33" target="t8qjZ4TBIEZS-IhVKaN8-8">
          <mxGeometry relative="1" as="geometry" />
        </mxCell>
        <mxCell id="qztZ1_po2IppHf0p68Rq-7" value="Поиск: Дмитроввское шоссе" style="rounded=1;whiteSpace=wrap;html=1;" vertex="1" parent="t8qjZ4TBIEZS-IhVKaN8-68">
          <mxGeometry y="84.83" width="170" height="60" as="geometry" />
        </mxCell>
      </root>
    </mxGraphModel>
  </diagram>
</mxfile>
